<!DOCTYPE svg PUBLIC "-//W3C//DTD SVG 1.1//EN" "http://www.w3.org/Graphics/SVG/1.1/DTD/svg11.dtd">
<!-- Uploaded to: SVG Repo, www.svgrepo.com, Transformed by: SVG Repo Mixer Tools -->
<svg fill="#c0bfbc" height="800px" width="800px" version="1.1" id="Shopicons" xmlns="http://www.w3.org/2000/svg" xmlns:xlink="http://www.w3.org/1999/xlink" viewBox="0 0 48 48" xml:space="preserve">
<g id="SVGRepo_bgCarrier" stroke-width="0"/>
<g id="SVGRepo_tracerCarrier" stroke-linecap="round" stroke-linejoin="round"/>
<g id="SVGRepo_iconCarrier"> <style type="text/css"> .st0{fill:none;} </style> <g> <path class="st0" d="M0,0h48v48H0V0z"/> <path d="M36,4H12c-4.4,0-8,3.6-8,8v24c0,4.4,3.6,8,8,8h24c4.4,0,8-3.6,8-8V12C44,7.6,40.4,4,36,4z M24,34c-5.5,0-10-4.5-10-10 s4.5-10,10-10s10,4.5,10,10S29.5,34,24,34z M35,15c-1.1,0-2-0.9-2-2c0-1.1,0.9-2,2-2s2,0.9,2,2C37,14.1,36.1,15,35,15z"/> </g> </g>
</svg>